<svg width="114" height="28" viewBox="0 0 114 28" fill="none" xmlns="http://www.w3.org/2000/svg">
<mask id="mask0_768_10839" style="mask-type:luminance" maskUnits="userSpaceOnUse" x="0" y="0" width="114" height="28">
<path d="M114 0H0V28H114V0Z" fill="white"/>
</mask>
<g mask="url(#mask0_768_10839)">
<path d="M113.857 25.528C113.689 25.2499 113.388 25.1118 113.069 25.1808C112.858 25.2288 112.65 25.3093 112.435 25.3534C111.839 25.4704 111.348 25.248 111.048 24.7052C110.933 24.4943 110.837 24.2603 110.791 24.0244C110.72 23.6543 110.661 23.2765 110.659 22.9006C110.648 19.6691 110.652 16.4356 110.654 13.2041C110.654 13.0315 110.678 12.8608 110.695 12.6537C110.878 12.6345 111.024 12.6096 111.173 12.6058C111.611 12.6 112.048 12.6115 112.488 12.6C112.66 12.5943 112.837 12.5636 112.998 12.5041C113.268 12.4006 113.407 12.1819 113.421 11.8847C113.436 11.5893 113.317 11.3496 113.062 11.2249C112.892 11.1406 112.688 11.1003 112.496 11.0926C112.037 11.0734 111.577 11.0926 111.114 11.0811C110.973 11.0773 110.829 11.0274 110.652 10.9929V10.2929C110.65 9.87097 110.667 9.44522 110.646 9.0233C110.54 6.82741 109.585 5.15316 107.675 4.07727C106.9 3.64193 106.071 3.37727 105.19 3.26412C103.113 2.99946 101.434 3.68796 100.203 5.41399C99.5461 6.33645 99.2121 7.397 99.1252 8.52851C99.0592 9.37426 99.0724 10.22 99.2423 11.0581C99.2743 11.2154 99.3366 11.48 99.4536 11.8252C99.1101 11.5778 98.408 11.3093 98.0173 11.1732C96.9736 10.8107 95.8921 10.6074 94.7974 10.5767C93.4781 10.5364 92.1739 10.7071 90.9301 11.2058C90.4375 11.4033 89.9788 11.6622 89.5692 12.0036C88.9917 12.4811 88.5746 13.0756 88.3745 13.8063C88.0291 15.0663 88.1631 16.2765 88.8218 17.4118C89.1936 18.0562 89.6712 18.6104 90.2544 19.0534C90.8659 19.5214 91.5001 19.9663 92.1569 20.3633C92.8892 20.8082 93.6649 21.1822 94.4161 21.5945C95.0522 21.9436 95.6958 22.283 96.3073 22.6723C96.7131 22.9293 97.0812 23.2534 97.4417 23.5756C97.7248 23.8288 97.9116 24.1625 98.0117 24.5365C98.1457 25.0312 98.0494 25.4819 97.6757 25.8195C97.4511 26.0228 97.1793 26.2107 96.8981 26.2989C95.6128 26.6978 94.4293 26.4926 93.3988 25.5778C92.9647 25.1904 92.6136 24.7321 92.3607 24.2066C92.1135 23.6888 91.9021 23.1499 91.6869 22.6148C91.3661 21.8055 90.8263 21.2896 89.9411 21.2071C88.9974 21.1208 88.2688 21.4622 87.7762 22.2907C87.6856 22.4422 87.6139 22.6071 87.5214 22.7932C87.2024 22.8469 86.9382 23.0175 86.7136 23.2803C85.449 24.7551 83.001 25.411 81.2363 24.9814C79.7773 24.6266 78.7279 23.7444 78.0315 22.423C77.6408 21.6828 77.8314 21.0748 78.5543 20.6778C78.8978 20.4899 79.2734 20.3364 79.6528 20.2501C80.7418 20.0008 81.8384 19.7956 82.9312 19.5712C83.7258 19.4063 84.5147 19.2241 85.2716 18.9211C85.7038 18.7485 86.1115 18.5356 86.4682 18.2307C86.9816 17.7896 87.2572 17.2392 87.2496 16.5392C87.244 15.9696 87.0986 15.4403 86.8684 14.9301C86.4663 14.0403 85.8699 13.3019 85.1225 12.6978C82.9878 10.9756 80.5587 10.266 77.8597 10.7014C75.9685 11.0063 74.4152 11.971 73.2242 13.5071C72.2088 14.8189 71.6501 16.3206 71.4444 17.9699C71.082 20.837 71.886 23.3071 73.8999 25.3438C75.3438 26.8033 77.1085 27.6164 79.1337 27.8984C80.6267 28.1074 82.0649 27.9291 83.4729 27.4496C84.9772 26.9375 86.2625 26.0688 87.2987 24.8337C87.4044 24.711 87.4667 24.5019 87.6856 24.548C87.9517 24.8893 88.1914 25.2365 88.4727 25.5433C89.0162 26.1417 89.6882 26.5636 90.4035 26.9126C91.8266 27.6107 93.3384 27.954 94.9106 27.9827C95.6524 27.9943 96.4017 27.9425 97.1397 27.8427C98.14 27.7085 99.1139 27.4438 100.016 26.9586C101.037 26.4121 101.836 25.6507 102.307 24.5614C102.413 24.3178 102.549 24.0877 102.685 23.8575C103.438 22.5745 104.121 21.2551 104.735 19.8973C104.799 19.7554 104.855 19.6096 104.937 19.4773C104.971 19.4197 105.05 19.3891 105.165 19.3085C105.174 19.6077 105.186 19.8282 105.188 20.0469C105.19 20.9617 105.173 21.8764 105.193 22.7893C105.207 23.2764 105.235 23.7712 105.333 24.2488C105.718 26.0899 106.796 27.2981 108.596 27.8063C109.48 28.0556 110.37 28.0595 111.259 27.8197C111.984 27.6241 112.675 27.3422 113.287 26.8973C113.481 26.7534 113.668 26.5904 113.823 26.4082C114.015 26.1838 114.011 25.7849 113.857 25.528ZM76.8575 19.0036C76.6537 17.6726 76.6801 16.3397 76.9556 15.0184C77.0708 14.4718 77.2142 13.931 77.486 13.4458C77.6596 13.1389 77.8578 12.8359 78.1013 12.5866C78.6317 12.0438 79.2753 11.946 79.9812 12.1896C80.4511 12.3526 80.8362 12.6441 81.1514 13.0238C81.9101 13.9329 82.2706 14.9838 82.146 16.1767C82.0441 17.128 81.5647 17.8433 80.7229 18.2863C80.4511 18.4282 80.1605 18.5299 79.8774 18.6507C79.4942 18.8137 79.113 18.9863 78.7279 19.1436C77.9862 19.4504 77.184 20.2521 77.184 20.2521C77.184 20.2521 76.9198 19.414 76.8575 19.0036ZM107.351 8.92741C106.9 10.1912 105.78 11.0178 104.45 11.0734C104.231 11.0811 104.006 11.0658 103.795 11.1041C103.361 11.1828 103.085 11.4973 103.093 11.8655C103.102 12.2644 103.408 12.5578 103.883 12.5962C104.123 12.6154 104.367 12.5962 104.606 12.6058C104.755 12.6115 104.901 12.6384 105.101 12.6614C104.886 13.7737 104.614 15.1449 104.229 16.1575C103.6 17.8126 101.904 20.277 101.904 20.277C101.904 20.277 101.758 20.0526 101.705 19.9874C100.843 18.9441 99.7443 18.2134 98.5685 17.6017C97.6531 17.126 96.7169 16.6926 95.7807 16.2592C94.9597 15.8814 94.1481 15.4882 93.4536 14.8995C93.1195 14.6175 92.825 14.2819 92.5325 13.954C92.4174 13.8255 92.3343 13.6567 92.2683 13.4937C92.0172 12.8743 92.2041 12.3411 92.7873 12.0266C93.1987 11.8041 93.6536 11.7274 94.1142 11.691C94.7332 11.6411 95.3447 11.7236 95.9431 11.8444C97.3718 12.1302 98.727 12.6326 99.9557 13.4381C100.341 13.6932 100.686 14.0058 101.052 14.2877C101.12 14.3395 101.439 14.6041 101.439 14.6041C101.439 14.6041 101.426 13.9482 101.379 13.7047C101.301 13.2904 101.232 12.8723 101.116 12.4677C100.779 11.2825 100.579 10.0819 100.65 8.84494C100.694 8.07974 100.852 7.34522 101.203 6.66248C101.847 5.41206 102.857 4.74275 104.259 4.70823C104.701 4.69672 105.133 4.72933 105.554 4.88467C107.168 5.48494 107.951 7.24357 107.351 8.92741Z" fill="#E91076"/>
<path d="M71.333 26.3507C71.2971 26.2702 71.2593 26.1877 71.2084 26.1167C70.8177 25.5797 70.6422 24.966 70.5969 24.3082C70.5685 23.8882 70.5308 23.4644 70.5289 23.0425C70.5214 21.1036 70.5251 19.1647 70.5251 17.2258C70.5251 16.5565 70.5044 15.8891 70.3836 15.2274C70.2175 14.3222 69.9514 13.4573 69.4531 12.6767C68.8869 11.783 68.1074 11.154 67.1108 10.8299C66.1312 10.5115 65.1309 10.4885 64.1268 10.7321C62.8188 11.0485 61.6845 11.6948 60.6974 12.6154C60.5558 12.7458 60.4086 12.8685 60.2217 13.0334C60.1613 12.9145 60.1443 12.8973 60.1443 12.8762C60.1311 12.6326 60.1217 12.389 60.1104 12.1455C60.0783 11.3899 59.5536 10.9852 58.8194 11.1329C58.3588 11.2269 57.9531 11.4359 57.5699 11.7044C57.2472 11.9326 56.9263 12.1666 56.5922 12.3814C56.0883 12.7074 55.5466 12.9375 54.9388 12.9778C54.7426 12.9932 54.5444 13.0219 54.3537 13.0622C54.0065 13.137 53.8234 13.3614 53.8045 13.7143C53.7913 13.9693 53.8687 14.1975 54.0159 14.4028C54.4632 15.0222 54.6123 15.7414 54.6293 16.4836C54.6557 17.6419 54.6425 18.8022 54.6482 19.9606C54.6482 20.1658 54.6104 20.3518 54.4972 20.5301C53.8762 21.5082 53.2024 22.4422 52.3134 23.1882C50.4525 24.7512 48.3046 25.3323 45.9321 24.9833C44.4448 24.7647 43.386 23.8633 42.6253 22.5784C42.5253 22.4096 42.4517 22.2178 42.3951 22.026C42.2781 21.6291 42.38 21.2723 42.6669 20.9847C42.8065 20.8466 42.9689 20.7181 43.1444 20.6395C43.4841 20.486 43.8276 20.3249 44.1881 20.2444C45.2545 20.0008 46.3285 19.7937 47.4005 19.577C48.2612 19.4044 49.1162 19.2107 49.9278 18.8655C50.3336 18.6929 50.7205 18.4819 51.0489 18.177C51.6434 17.6247 51.8775 16.9419 51.7491 16.1288C51.6415 15.4326 51.3773 14.8036 51.0017 14.2206C50.5166 13.463 49.8957 12.834 49.1652 12.3258C47.2533 10.9967 45.1582 10.3792 42.8273 10.6458C41.1324 10.8414 39.6413 11.4954 38.4485 12.7266C36.0817 15.1756 35.3928 18.1521 36.1723 21.42C36.8612 24.3025 38.758 26.2222 41.44 27.3269C43.5049 28.1784 45.632 28.1438 47.7704 27.6586C50.0032 27.1504 51.8624 25.9921 53.3949 24.2795C53.7196 23.917 54.0121 23.5258 54.3217 23.1499C54.3896 23.0674 54.4594 22.9734 54.6142 23.0501C54.6803 23.4797 54.6557 23.9247 54.6048 24.3638C54.5331 24.966 54.3934 25.5491 54.0272 26.0496C53.9744 26.1206 53.9253 26.1973 53.8913 26.2778C53.5893 27.0334 54.0914 27.463 54.5934 27.4592C54.6803 27.4592 54.769 27.4611 54.8558 27.4611C56.545 27.4611 58.2343 27.4611 59.9235 27.4592C60.0537 27.4592 60.1896 27.4707 60.3161 27.4458C60.8465 27.3384 61.139 26.8532 60.9031 26.3392C60.8389 26.1992 60.7521 26.0688 60.669 25.9384C60.4426 25.5759 60.2802 25.1866 60.2349 24.7589C60.184 24.2507 60.1274 23.7406 60.1179 23.2304C60.099 22.1373 60.1104 21.0441 60.1123 19.9529C60.1141 19.6384 60.0934 19.3296 59.965 19.0362C59.8556 18.7869 59.6706 18.6622 59.3988 18.6641C59.1025 18.666 58.8458 18.7754 58.5967 18.9288C57.9908 19.297 57.4604 19.7649 56.9678 20.2732C56.4601 20.7948 55.2842 21.9589 55.2106 22.0318C55.2597 21.9282 56.3223 19.809 56.8716 18.8521C57.5907 17.5959 58.4306 16.428 59.4366 15.3923C59.9631 14.8496 60.5445 14.3778 61.2202 14.0384C61.7826 13.7545 62.3715 13.6203 63 13.6663C63.9248 13.7354 64.5477 14.2186 64.895 15.0855C65.046 15.4652 65.0629 15.8641 65.0629 16.2688C65.0611 18.6296 65.063 20.9923 65.0611 23.357C65.0611 23.6236 65.0554 23.8901 65.0403 24.1586C64.9988 24.8337 64.8497 25.4781 64.4552 26.0438C64.391 26.1359 64.3287 26.228 64.2872 26.3296C64.0702 26.8762 64.3665 27.3825 64.9441 27.4534C65.029 27.463 65.1196 27.4592 65.2064 27.4592C66.939 27.4611 68.6736 27.4611 70.4062 27.4592C70.5157 27.4592 70.6271 27.4649 70.7346 27.4496C71.2669 27.3691 71.5443 26.857 71.333 26.3507ZM41.7345 20.323C41.642 20.1408 41.5816 20.0699 41.5703 19.9912C41.4702 19.3775 41.3362 18.7658 41.2947 18.1463C41.2135 16.988 41.2381 15.8296 41.5514 14.7C41.6628 14.2934 41.8119 13.8965 41.9723 13.5091C42.0648 13.2847 42.2044 13.0795 42.3479 12.8819C42.9972 11.9921 43.9673 11.8559 44.8525 12.3488C44.9487 12.4006 45.0488 12.4543 45.1318 12.5233C46.3096 13.5033 46.8343 14.7614 46.6399 16.2975C46.5172 17.2852 45.9529 17.9603 45.0733 18.3726C44.7581 18.5203 44.4222 18.6334 44.0994 18.7677C43.7974 18.8962 43.4954 19.0304 43.1972 19.1685C42.6518 19.4197 42.1856 19.7803 41.7345 20.323Z" fill="#E91076"/>
<path d="M35.238 27.4496C35.1096 27.4669 34.9756 27.4592 34.8435 27.4592C33.1769 27.4592 31.5103 27.4592 29.8437 27.4592C29.6909 27.4592 29.5342 27.4707 29.3832 27.4438C28.8491 27.3479 28.5867 26.8359 28.8094 26.3334C28.8717 26.1934 28.9604 26.063 29.0435 25.9326C29.2775 25.5721 29.4266 25.1751 29.4795 24.7532C29.5418 24.2449 29.5965 23.7348 29.5984 23.2227C29.6116 20.9732 29.6097 18.7216 29.5984 16.4721C29.5984 16.0962 29.5663 15.7126 29.4832 15.3482C29.2568 14.3433 28.4697 13.7123 27.4581 13.6606C26.7484 13.6241 26.1142 13.8159 25.5612 14.2666C25.0629 14.6732 24.7402 15.189 24.6685 15.8449C24.642 16.0885 24.6213 16.3321 24.6213 16.5775C24.6194 18.76 24.6137 20.9425 24.6213 23.1269C24.6232 23.5948 24.659 24.0627 24.7062 24.5269C24.7534 25.0197 24.9006 25.4838 25.1648 25.9077C25.2479 26.0381 25.3385 26.1647 25.4045 26.3066C25.648 26.8378 25.3668 27.3671 24.7987 27.4477C24.6703 27.4649 24.5363 27.4573 24.4042 27.4573C22.7376 27.4573 21.071 27.4573 19.4044 27.4573C19.2516 27.4573 19.0949 27.4669 18.9439 27.44C18.4437 27.3499 18.1738 26.8589 18.3588 26.3795C18.4135 26.2356 18.5023 26.1033 18.5872 25.9748C18.8967 25.4973 19.0609 24.9718 19.0987 24.4079C19.1364 23.8748 19.1685 23.3416 19.1723 22.8066C19.1798 21.0901 19.1798 19.3756 19.1723 17.6611C19.1704 17.1279 19.1383 16.591 19.0987 16.0597C19.059 15.4978 18.9062 14.9666 18.5891 14.4948C18.5023 14.3663 18.4154 14.234 18.3607 14.0901C18.1663 13.5877 18.4135 13.1466 18.9401 13.0469C19.0911 13.0181 19.244 12.9932 19.3969 12.9855C20.099 12.9414 20.7068 12.6556 21.2805 12.2682C21.6089 12.0458 21.9279 11.8118 22.2582 11.5912C22.5696 11.3784 22.9056 11.2288 23.2774 11.1482C24.0664 10.9775 24.5703 11.3496 24.6137 12.1551C24.625 12.3564 24.6156 12.5559 24.6345 12.7553C24.642 12.8321 24.6722 13.1773 24.6722 13.1773C24.6722 13.1773 25.1101 12.7074 25.2686 12.5597C26.2293 11.6775 27.3222 11.0485 28.5886 10.7436C29.5436 10.5134 30.493 10.5077 31.4443 10.78C32.5767 11.1041 33.4355 11.7849 34.0432 12.7975C34.5887 13.7085 34.8699 14.7134 34.9624 15.7663C35.0304 16.5411 35.0568 17.3216 35.0643 18.1003C35.0776 19.7496 35.0662 21.397 35.07 23.0463C35.07 23.4471 35.0757 23.8479 35.1021 24.2488C35.1417 24.8797 35.2984 25.4762 35.6513 26.0112C35.7589 26.1723 35.8571 26.3603 35.891 26.5501C35.976 27.0219 35.7023 27.3844 35.2361 27.4515L35.238 27.4496Z" fill="#E91076"/>
<path d="M16.0506 13.8466C13.763 11.1751 10.8318 10.1893 7.42505 10.7205C5.44138 11.0274 3.72005 11.946 2.35167 13.4534C0.337798 15.6704 -0.398292 18.2729 0.271741 21.232C0.743595 23.3167 1.89115 24.9718 3.5936 26.2068C5.58482 27.6529 7.80631 28.211 10.2449 27.8964C11.3452 27.7526 12.3946 27.4534 13.361 26.9126C16.3016 25.2633 17.8908 22.7471 18.0116 19.9701C18.0229 17.2411 17.3812 15.4 16.0506 13.8466ZM12.3871 24.3696C12.2833 24.686 12.1549 24.9967 11.9926 25.2825C11.8624 25.5107 11.6868 25.7274 11.4887 25.8923C11.0602 26.2471 10.5789 26.389 10.0146 26.2184C9.51631 26.0688 9.09919 25.8041 8.71982 25.4589C8.22532 25.0101 7.81952 24.4847 7.46657 23.9151C6.63989 22.5822 6.10763 21.1266 5.75091 19.6C5.56783 18.8175 5.46403 18.0236 5.39797 17.2238C5.31681 16.263 5.39797 15.3079 5.62634 14.372C5.74336 13.8926 5.92644 13.44 6.21711 13.0392C6.66631 12.4216 7.38353 12.0553 8.31025 12.4197C8.76889 12.6 9.15581 12.8877 9.50498 13.231C10.0957 13.8082 10.5582 14.4833 10.9526 15.2101C11.7642 16.7079 12.2795 18.3112 12.5267 19.9989C12.6192 20.6356 12.6589 21.2819 12.723 21.9225C12.6985 22.7548 12.6494 23.5775 12.3871 24.3696Z" fill="#E91076"/>
<path d="M14.467 1.52274C14.467 1.52274 13.0627 1.87178 12.5871 2.00219C12.1945 2.10959 11.8284 2.10383 11.4244 2.02329C10.5204 1.83918 9.72954 2.07315 9.15199 2.85945C8.95381 3.12603 8.75753 3.3926 8.55368 3.65534C8.47441 3.75507 8.38004 3.84137 8.31398 3.91425C8.24414 3.90466 8.21395 3.90849 8.20451 3.89699C8.07617 3.7474 7.94405 3.59973 7.82325 3.44247C6.9022 2.23808 5.84146 1.17945 4.58067 0.34137C4.3655 0.197534 4.15223 0.0345205 3.90497 0C3.65961 0.14 3.68415 0.34904 3.72945 0.544657C3.85024 1.04137 4.00123 1.53233 4.11636 2.02904C4.24282 2.57178 4.53726 2.90932 5.06762 3.11069C5.80938 3.38877 6.48885 3.8011 7.10792 4.31123C7.24382 4.42055 7.37405 4.54329 7.47974 4.68137C7.5156 4.72548 7.49484 4.86356 7.45143 4.9115C7.40614 4.96137 7.28534 4.99589 7.22494 4.96904C7.10792 4.91918 7.00978 4.81945 6.90219 4.74466C6.52282 4.48 6.15666 4.19425 5.75842 3.96411C4.33342 3.13754 2.78762 2.66192 1.17388 2.40109C0.917193 2.3589 0.649177 2.37041 0.386826 2.37617C0.190535 2.38384 0.0829527 2.59288 0.186761 2.76548C0.264145 2.89781 0.364182 3.01671 0.462328 3.13562C1.6212 4.55671 2.9707 5.74767 4.54481 6.67397C4.67126 6.74876 4.78074 6.85425 4.92607 6.96931C4.77319 7.20137 4.64484 7.40466 4.50706 7.60411C3.47653 9.1 2.44412 10.5959 1.4117 12.0918C1.31167 12.2375 1.20597 12.3814 1.11915 12.5348C1.08328 12.5962 1.0965 12.6863 1.07574 12.8397C1.26259 12.7496 1.38338 12.7112 1.4853 12.6403C1.90054 12.3468 2.30444 12.0438 2.71779 11.7485C3.98047 10.8471 5.32054 10.1069 6.80593 9.64466C7.22305 9.51617 7.63074 9.3474 8.02898 9.16329C9.61253 8.42301 10.7506 7.24164 11.4037 5.59233C11.717 4.80219 11.8982 3.9737 11.9397 3.12411C11.9586 2.76356 12.085 2.55069 12.4361 2.44137C12.9382 2.28411 14.516 1.64548 14.516 1.64548L14.467 1.52274ZM10.9337 2.87479C10.9337 2.87479 10.9299 2.89205 10.9262 2.89973C10.9243 2.90548 10.9224 2.91315 10.9205 2.9189C10.9205 2.92274 10.9205 2.92658 10.9205 2.92658C10.9167 2.93617 10.913 2.94192 10.9092 2.95151C10.896 2.97836 10.8809 3.00137 10.862 3.02055C10.8563 3.0263 10.8507 3.03397 10.845 3.03973H10.8431C10.8356 3.04932 10.8299 3.05315 10.8242 3.05891C10.8167 3.06466 10.8091 3.06849 10.8016 3.07425C10.8016 3.07425 10.7959 3.07808 10.794 3.08C10.7846 3.08575 10.7733 3.09151 10.762 3.09535C10.7223 3.11644 10.6789 3.12411 10.6355 3.12219C10.611 3.12027 10.5864 3.11452 10.5638 3.10685C10.5581 3.10493 10.5525 3.10302 10.5468 3.1011C10.5336 3.09535 10.5185 3.08767 10.5072 3.08C10.4977 3.07425 10.4902 3.06849 10.4826 3.06274C10.4713 3.05315 10.46 3.04548 10.4524 3.03397C10.4487 3.03397 10.4468 3.03013 10.443 3.02438C10.4166 2.99753 10.3977 2.96685 10.3826 2.93233C10.375 2.91699 10.3694 2.89781 10.3656 2.88055C10.3599 2.85945 10.3581 2.83836 10.3581 2.81726C10.3581 2.80767 10.3599 2.8 10.3618 2.78849C10.3637 2.78082 10.3637 2.77315 10.3675 2.76548C10.3675 2.76165 10.3675 2.75973 10.3675 2.75589C10.3713 2.74055 10.375 2.72712 10.3826 2.7137C10.3901 2.69644 10.3996 2.68109 10.4109 2.66575C10.4147 2.65808 10.4222 2.65041 10.4279 2.64466C10.4336 2.63699 10.4392 2.63123 10.4468 2.62548C10.46 2.61206 10.477 2.60055 10.4939 2.59096C10.4996 2.58521 10.5053 2.58137 10.5128 2.57945C10.5204 2.57562 10.526 2.57178 10.5336 2.57178C10.5336 2.57178 10.5392 2.56795 10.543 2.56603C10.5468 2.56411 10.5506 2.56411 10.5543 2.56219C10.5619 2.55835 10.5694 2.55644 10.5789 2.55644C10.6053 2.54876 10.6336 2.54493 10.6619 2.54685C10.7016 2.54685 10.7393 2.55836 10.7714 2.57178C10.8035 2.58521 10.8337 2.6063 10.8582 2.63123C10.8714 2.64466 10.8828 2.65808 10.8922 2.67343C10.9092 2.70027 10.9205 2.72904 10.9262 2.75973C10.9356 2.78658 10.9375 2.81534 10.9356 2.84603C10.9356 2.85562 10.9337 2.8652 10.9337 2.87479Z" fill="#E91076"/>
<path d="M10.441 3.02439C10.4165 2.99946 10.3938 2.96686 10.3806 2.93234C10.3957 2.96686 10.4146 2.99754 10.441 3.02439Z" fill="#E91076"/>
<path d="M110.48 3.21042V3.40987H110.771V4.23645H110.976V3.40987H111.267V3.21042H110.48Z" fill="#E91076"/>
<path d="M112.165 3.21042L111.907 3.60357L111.648 3.21042H111.41V4.23645H111.618V3.50001L111.897 3.93152H111.916L112.197 3.50001V4.23645H112.403V3.21042H112.165Z" fill="#E91076"/>
</g>
</svg>
